<?xml version="1.0" standalone="no"?>
<!DOCTYPE svg PUBLIC "-//W3C//DTD SVG 20010904//EN"
 "http://www.w3.org/TR/2001/REC-SVG-20010904/DTD/svg10.dtd">
<svg version="1.0" xmlns="http://www.w3.org/2000/svg"
 width="500.000000pt" height="500.000000pt" viewBox="0 0 500.000000 500.000000"
 preserveAspectRatio="xMidYMid meet">
<metadata>
Created by potrace 1.14, written by Peter Selinger 2001-2017
</metadata>
<g transform="translate(0.000000,500.000000) scale(0.100000,-0.100000)"
fill="#000000" stroke="none">
<path d="M0 2500 l0 -2500 2500 0 2500 0 0 2500 0 2500 -2500 0 -2500 0 0
-2500z m1577 1335 c107 -20 229 -63 337 -117 l90 -45 74 59 c107 85 143 101
237 105 67 4 85 1 112 -16 45 -28 66 -66 66 -114 -1 -45 -142 -518 -172 -577
-24 -47 -68 -71 -133 -73 -80 -1 -121 26 -232 152 -207 235 -308 304 -447 305
-66 1 -81 -2 -116 -26 -57 -37 -82 -101 -64 -166 21 -81 91 -141 345 -297 286
-175 395 -273 466 -419 65 -132 73 -249 29 -415 -68 -257 -247 -427 -544 -518
-87 -26 -98 -27 -310 -27 -194 0 -229 3 -297 22 -101 28 -209 78 -303 141 -41
28 -78 51 -81 51 -3 0 -40 -28 -83 -63 -145 -121 -198 -147 -291 -147 -93 1
-160 57 -160 137 0 44 189 604 217 641 34 45 63 62 120 69 103 12 167 -34 313
-227 104 -137 192 -223 257 -252 62 -28 209 -36 268 -15 58 20 97 74 102 139
4 46 0 59 -26 100 -36 56 -96 102 -303 232 -277 173 -387 273 -453 410 -122
255 -30 610 204 790 82 64 207 124 315 151 112 30 336 34 463 10z m2739 -5
c160 -12 264 -37 369 -89 185 -92 285 -240 285 -423 0 -256 -161 -455 -435
-539 -55 -17 -107 -33 -115 -36 -8 -2 10 -14 41 -27 80 -32 120 -59 172 -115
83 -89 112 -176 105 -309 -10 -167 -94 -344 -211 -446 -114 -100 -299 -165
-528 -186 -83 -7 -378 -10 -881 -8 -750 3 -757 3 -785 24 -60 45 -37 120 56
183 64 44 101 83 119 127 26 64 424 1483 429 1529 4 44 1 59 -31 119 -39 75
-44 110 -20 144 22 33 52 45 124 52 104 11 1162 11 1306 0z"/>
<path d="M3775 3528 c-11 -28 -165 -580 -165 -590 0 -6 43 -9 128 -7 120 4
130 6 182 35 91 52 152 157 187 322 27 134 -7 214 -102 241 -57 16 -224 15
-230 -1z"/>
<path d="M3495 2538 c-8 -29 -49 -170 -90 -313 -41 -142 -75 -263 -75 -268 0
-5 64 -7 143 -5 137 3 144 4 197 34 95 54 163 172 198 345 26 131 2 202 -82
240 -32 15 -66 19 -158 19 l-117 0 -16 -52z"/>
</g>
</svg>
